# xmcd
#
# Track frame offsets: 
#        150
#        9923
#        19438
#        30637
#        54241
#        65334
#        75465
#        102810
#        106168
#        119405
#        129355
#        158969
#        170663
#        182321
#
# Disc length: 2631 seconds
#
# Revision: 5
# Processed by: cddbd v1.5.2PL0 Copyright (c) Steve Scherf et al.
# Submitted via: ExactAudioCopy v0.95b4
#
DISCID=a20a450e
DTITLE=Hank Thompson - Hank Thompson and His Brazos Valley Boys CD 12
DYEAR=1996
DGENRE=Country
TTITLE0=Intro - 1963
TTITLE1=Deep In The Heart Of Texas
TTITLE2=My Heart Is A Playground
TTITLE3=Charmaine
TTITLE4=How Many Teardrops Will It Take
TTITLE5=New Wears Off Too Fast
TTITLE6=Rub A Dub Dub
TTITLE7=Intro 2 - 1963
TTITLE8=Beautiful Texan
TTITLE9=Will We Start It All Over Again
TTITLE10=River Road Two Step
TTITLE11=I Cast A Lonesome Shadow
TTITLE12=Simple Simon
TTITLE13=There's A Little Bit Of Everything In Texas - Eyes Of Texas
EXTD=Volume #12 of a 12-CD Box Set - BCD 15904 LK YEAR: 1996
EXTT0=
EXTT1=
EXTT2=
EXTT3=
EXTT4=
EXTT5=
EXTT6=
EXTT7=
EXTT8=
EXTT9=
EXTT10=
EXTT11=
EXTT12=
EXTT13=
PLAYORDER=
